<?xml version="1.0" encoding="UTF-8" standalone="no"?>
<!-- Created with Inkscape (http://www.inkscape.org/) -->

<svg
   width="184"
   height="98"
   viewBox="0 0 48.683332 25.929167"
   version="1.1"
   id="svg1"
   xml:space="preserve"
   inkscape:version="1.4.4 (dcaf3e7, 2026-05-05)"
   sodipodi:docname="digit_aux_ALL.svg"
   xmlns:inkscape="http://www.inkscape.org/namespaces/inkscape"
   xmlns:sodipodi="http://sodipodi.sourceforge.net/DTD/sodipodi-0.dtd"
   xmlns="http://www.w3.org/2000/svg"
   xmlns:svg="http://www.w3.org/2000/svg"><sodipodi:namedview
     id="namedview1"
     pagecolor="#ffffff"
     bordercolor="#000000"
     borderopacity="0.25"
     inkscape:showpageshadow="2"
     inkscape:pageopacity="0.0"
     inkscape:pagecheckerboard="0"
     inkscape:deskcolor="#d1d1d1"
     inkscape:document-units="mm"
     showgrid="false"
     inkscape:zoom="3.9660774"
     inkscape:cx="91.021924"
     inkscape:cy="56.10077"
     inkscape:current-layer="layer1" /><defs
     id="defs1"><inkscape:path-effect
       effect="fillet_chamfer"
       id="path-effect12-7"
       is_visible="true"
       lpeversion="1"
       nodesatellites_param="F,0,0,1,0,0.36665065,0,1 @ F,0,0,1,0,0.31836415,0,1 @ F,0,0,1,0,0.33911073,0,1 @ F,0,0,1,0,0.29114078,0,1"
       radius="0"
       unit="px"
       method="auto"
       mode="F"
       chamfer_steps="1"
       flexible="false"
       use_knot_distance="true"
       apply_no_radius="true"
       apply_with_radius="true"
       only_selected="false"
       hide_knots="false" /><inkscape:path-effect
       effect="fillet_chamfer"
       id="path-effect12-7-6"
       is_visible="true"
       lpeversion="1"
       nodesatellites_param="F,0,0,1,0,0.36665065,0,1 @ F,0,0,1,0,0.31836415,0,1 @ F,0,0,1,0,0.33911073,0,1 @ F,0,0,1,0,0.29114078,0,1"
       radius="0"
       unit="px"
       method="auto"
       mode="F"
       chamfer_steps="1"
       flexible="false"
       use_knot_distance="true"
       apply_no_radius="true"
       apply_with_radius="true"
       only_selected="false"
       hide_knots="false" /><inkscape:path-effect
       effect="fillet_chamfer"
       id="path-effect12-7-6-3"
       is_visible="true"
       lpeversion="1"
       nodesatellites_param="F,0,0,1,0,0.36665065,0,1 @ F,0,0,1,0,0.31836415,0,1 @ F,0,0,1,0,0.33911073,0,1 @ F,0,0,1,0,0.29114078,0,1"
       radius="0"
       unit="px"
       method="auto"
       mode="F"
       chamfer_steps="1"
       flexible="false"
       use_knot_distance="true"
       apply_no_radius="true"
       apply_with_radius="true"
       only_selected="false"
       hide_knots="false" /><inkscape:path-effect
       effect="fillet_chamfer"
       id="path-effect12-7-6-39"
       is_visible="true"
       lpeversion="1"
       nodesatellites_param="F,0,0,1,0,0.36665065,0,1 @ F,0,0,1,0,0.31836415,0,1 @ F,0,0,1,0,0.33911073,0,1 @ F,0,0,1,0,0.29114078,0,1"
       radius="0"
       unit="px"
       method="auto"
       mode="F"
       chamfer_steps="1"
       flexible="false"
       use_knot_distance="true"
       apply_no_radius="true"
       apply_with_radius="true"
       only_selected="false"
       hide_knots="false" /></defs><g
     inkscape:label="Calque 1"
     inkscape:groupmode="layer"
     id="layer1"><path
       style="fill:#000000;fill-opacity:1;stroke:none;stroke-width:0.198636;stroke-linecap:round;stroke-linejoin:round;stroke-dasharray:none;stroke-opacity:1"
       d="m 3.3114628,19.66336 -2.78619099,1.689644 c 0.46862628,0.725492 1.26725629,1.296804 2.24034529,1.303301 l 4.2731465,0.02836 c 1.2403122,-0.0083 1.2482931,-0.223297 1.7187278,-0.413669 l -1.6582325,-2.58405 z"
       id="path11-7"
       sodipodi:nodetypes="ccccccc" /><path
       style="fill:#000000;fill-opacity:1;stroke:none;stroke-width:0.198636;stroke-linecap:round;stroke-linejoin:round;stroke-dasharray:none;stroke-opacity:1"
       d="m 10.067128,12.598881 -2.098847,1.443618 -0.3770412,5.80955 1.4431659,2.16038 c 0.8970268,-0.495067 1.5199473,-0.950962 1.6053693,-1.857655 l 0.559506,-6.664476 z"
       id="path10-1"
       sodipodi:nodetypes="ccccccc" /><path
       style="fill:#000000;fill-opacity:1;stroke:none;stroke-width:0.197099;stroke-linecap:round;stroke-linejoin:round;stroke-dasharray:none;stroke-opacity:1"
       d="m 2.180977,12.569318 -1.40473799,0.964544 -0.44476364,6.32436 c -0.0314389,0.322834 -0.0360506,0.848451 0.10102101,1.152164 L 3.3142132,19.339183 3.8584964,13.762356 Z"
       id="path9-8"
       sodipodi:nodetypes="ccccccc" /><path
       style="fill:#000000;fill-opacity:1;stroke:none;stroke-width:0.192006;stroke-linecap:round;stroke-linejoin:round;stroke-dasharray:none;stroke-opacity:1"
       d="M 1.9502297,4.1927119 C 1.7251602,4.5262211 1.5894218,4.8931627 1.5515645,5.2704231 L 1.1481459,11.212864 2.1849409,12.259525 4.2795644,10.606085 4.4905029,5.4464613 3.267768,4.8536225 Z"
       id="path8-7"
       sodipodi:nodetypes="cccccccc" /><path
       style="fill:#000000;fill-opacity:1;stroke:none;stroke-width:0.198636;stroke-linecap:round;stroke-linejoin:round;stroke-dasharray:none;stroke-opacity:1"
       d="m 10.453699,2.311541 -1.5586702,3.017573 -0.4796905,5.654436 1.6524977,1.219554 1.368255,-0.77647 0.542922,-7.1563966 C 12.056482,3.4470202 11.329275,2.6682833 10.453699,2.311541 Z"
       id="path7-8"
       sodipodi:nodetypes="ccccccc" /><path
       style="fill:#000000;fill-opacity:1;stroke:none;stroke-width:0.223296;stroke-linecap:round;stroke-linejoin:round;stroke-dasharray:none;stroke-opacity:1"
       d="M 5.0023792,2.0917986 C 3.8770421,2.0845839 2.7010668,2.9131547 2.0490086,3.8962437 L 4.5262704,5.2001058 8.62519,5.2174378 h 0.024692 l 1.564657,-3.019015 C 10.031332,2.1488679 9.8432149,2.123188 9.6542675,2.1219398 Z"
       id="rect4-7"
       sodipodi:nodetypes="cccccccc" /><path
       style="fill:#000000;fill-opacity:1;stroke:none;stroke-width:0.186936;stroke-linecap:round;stroke-linejoin:round;stroke-dasharray:none;stroke-opacity:1"
       d="m 4.3343921,10.865357 3.520105,3e-6 1.8703333,1.585006 -2.0235415,1.40811 -3.27631,-0.03538 -1.8820771,-1.376053 z"
       id="path6-7"
       sodipodi:nodetypes="ccccccc" /><path
       style="fill:#000000;fill-opacity:1;stroke:none;stroke-width:0.3;stroke-linecap:round;stroke-linejoin:round;stroke-dasharray:none;stroke-opacity:1"
       d="m 53.440408,37.453285 1.845073,-0.009 a 0.33511511,0.33511511 136.18824 0 0 0.333116,-0.319579 l 0.08941,-1.927053 a 0.32161496,0.32161496 46.139796 0 0 -0.323385,-0.336515 l -1.883305,0.01239 a 0.30897439,0.30897439 136.32514 0 0 -0.30651,0.29265 l -0.101687,1.922778 a 0.3460738,0.3460738 46.373583 0 0 0.347283,0.364346 z"
       id="path12-4"
       sodipodi:nodetypes="ccccc"
       inkscape:path-effect="#path-effect12-7-6"
       inkscape:original-d="m 53.073762,37.455078 2.530079,-0.01237 0.119889,-2.583821 -2.513542,0.01654 z"
       transform="matrix(0.78547707,0,0,0.72245417,-31.467849,-3.5440834)" /><path
       style="fill:#000000;fill-opacity:1;stroke:none;stroke-width:0.198636;stroke-linecap:round;stroke-linejoin:round;stroke-dasharray:none;stroke-opacity:1"
       d="m 39.760901,19.66336 -2.786191,1.689644 c 0.468626,0.725492 1.267256,1.296804 2.240345,1.303301 l 4.273147,0.02836 c 1.240312,-0.0083 1.248293,-0.223297 1.718727,-0.413669 l -1.658232,-2.58405 z"
       id="path11-7-5-3"
       sodipodi:nodetypes="ccccccc" /><path
       style="fill:#000000;fill-opacity:1;stroke:none;stroke-width:0.198636;stroke-linecap:round;stroke-linejoin:round;stroke-dasharray:none;stroke-opacity:1"
       d="m 46.516566,12.598881 -2.098847,1.443618 -0.377041,5.80955 1.443166,2.16038 c 0.897027,-0.495067 1.519947,-0.950962 1.605369,-1.857655 l 0.559506,-6.664476 z"
       id="path10-1-3-7"
       sodipodi:nodetypes="ccccccc" /><path
       style="fill:#000000;fill-opacity:1;stroke:none;stroke-width:0.197099;stroke-linecap:round;stroke-linejoin:round;stroke-dasharray:none;stroke-opacity:1"
       d="m 38.630415,12.569318 -1.404738,0.964544 -0.444764,6.32436 c -0.03144,0.322834 -0.03605,0.848451 0.101021,1.152164 l 2.881717,-1.671203 0.544283,-5.576827 z"
       id="path9-8-3-0"
       sodipodi:nodetypes="ccccccc" /><path
       style="fill:#000000;fill-opacity:1;stroke:none;stroke-width:0.192006;stroke-linecap:round;stroke-linejoin:round;stroke-dasharray:none;stroke-opacity:1"
       d="M 38.399668,4.1927118 C 38.174598,4.526221 38.03886,4.8931626 38.001002,5.270423 l -0.403418,5.942441 1.036795,1.046661 2.094623,-1.65344 0.210939,-5.1596238 -1.222735,-0.5928388 z"
       id="path8-7-3-0"
       sodipodi:nodetypes="cccccccc" /><path
       style="fill:#000000;fill-opacity:1;stroke:none;stroke-width:0.198636;stroke-linecap:round;stroke-linejoin:round;stroke-dasharray:none;stroke-opacity:1"
       d="m 46.903137,2.3115409 -1.55867,3.017573 -0.479691,5.6544361 1.652498,1.219554 1.368255,-0.77647 0.542922,-7.1563967 C 48.50592,3.4470201 47.778713,2.6682832 46.903137,2.3115409 Z"
       id="path7-8-8-1"
       sodipodi:nodetypes="ccccccc" /><path
       style="fill:#000000;fill-opacity:1;stroke:none;stroke-width:0.223296;stroke-linecap:round;stroke-linejoin:round;stroke-dasharray:none;stroke-opacity:1"
       d="m 41.451817,2.0917985 c -1.125337,-0.00721 -2.301312,0.8213561 -2.95337,1.8044451 l 2.477261,1.3038621 4.09892,0.017332 h 0.02469 l 1.564657,-3.019015 c -0.183205,-0.049555 -0.371322,-0.075235 -0.56027,-0.076483 z"
       id="rect4-7-5-0"
       sodipodi:nodetypes="cccccccc" /><path
       style="fill:#000000;fill-opacity:1;stroke:none;stroke-width:0.186936;stroke-linecap:round;stroke-linejoin:round;stroke-dasharray:none;stroke-opacity:1"
       d="m 40.78383,10.865357 3.520105,3e-6 1.870333,1.585006 -2.023541,1.40811 -3.27631,-0.03538 -1.882077,-1.376053 z"
       id="path6-7-8-3"
       sodipodi:nodetypes="ccccccc" /><path
       style="fill:#000000;fill-opacity:1;stroke:none;stroke-width:0.198636;stroke-linecap:round;stroke-linejoin:round;stroke-dasharray:none;stroke-opacity:1"
       d="m 27.533729,19.66336 -2.786191,1.689644 c 0.468626,0.725492 1.267256,1.296804 2.240345,1.303301 l 4.273147,0.02836 c 1.240312,-0.0083 1.248293,-0.223297 1.718727,-0.413669 l -1.658232,-2.58405 z"
       id="path11-7-5"
       sodipodi:nodetypes="ccccccc" /><path
       style="fill:#000000;fill-opacity:1;stroke:none;stroke-width:0.198636;stroke-linecap:round;stroke-linejoin:round;stroke-dasharray:none;stroke-opacity:1"
       d="m 34.289394,12.598881 -2.098847,1.443618 -0.377041,5.80955 1.443166,2.16038 c 0.897027,-0.495067 1.519947,-0.950962 1.605369,-1.857655 l 0.559506,-6.664476 z"
       id="path10-1-3"
       sodipodi:nodetypes="ccccccc" /><path
       style="fill:#000000;fill-opacity:1;stroke:none;stroke-width:0.197099;stroke-linecap:round;stroke-linejoin:round;stroke-dasharray:none;stroke-opacity:1"
       d="m 26.403243,12.569318 -1.404738,0.964544 -0.444764,6.32436 c -0.03144,0.322834 -0.03605,0.848451 0.101021,1.152164 l 2.881717,-1.671203 0.544283,-5.576827 z"
       id="path9-8-3"
       sodipodi:nodetypes="ccccccc" /><path
       style="fill:#000000;fill-opacity:1;stroke:none;stroke-width:0.192006;stroke-linecap:round;stroke-linejoin:round;stroke-dasharray:none;stroke-opacity:1"
       d="M 26.172496,4.1927118 C 25.947426,4.526221 25.811688,4.8931626 25.77383,5.270423 l -0.403418,5.942441 1.036795,1.046661 2.094623,-1.65344 0.210939,-5.1596238 -1.222735,-0.5928388 z"
       id="path8-7-3"
       sodipodi:nodetypes="cccccccc" /><path
       style="fill:#000000;fill-opacity:1;stroke:none;stroke-width:0.198636;stroke-linecap:round;stroke-linejoin:round;stroke-dasharray:none;stroke-opacity:1"
       d="m 34.675965,2.3115409 -1.55867,3.017573 -0.479691,5.6544361 1.652498,1.219554 1.368255,-0.77647 0.542922,-7.1563967 C 36.278748,3.4470201 35.551541,2.6682832 34.675965,2.3115409 Z"
       id="path7-8-8"
       sodipodi:nodetypes="ccccccc" /><path
       style="fill:#000000;fill-opacity:1;stroke:none;stroke-width:0.223296;stroke-linecap:round;stroke-linejoin:round;stroke-dasharray:none;stroke-opacity:1"
       d="m 29.224645,2.0917985 c -1.125337,-0.00721 -2.301312,0.8213561 -2.95337,1.8044451 l 2.477261,1.3038621 4.09892,0.017332 h 0.02469 l 1.564657,-3.019015 c -0.183205,-0.049555 -0.371322,-0.075235 -0.56027,-0.076483 z"
       id="rect4-7-5"
       sodipodi:nodetypes="cccccccc" /><path
       style="fill:#000000;fill-opacity:1;stroke:none;stroke-width:0.186936;stroke-linecap:round;stroke-linejoin:round;stroke-dasharray:none;stroke-opacity:1"
       d="m 28.556658,10.865357 3.520105,3e-6 1.870333,1.585006 -2.023541,1.40811 -3.27631,-0.03538 -1.882077,-1.376053 z"
       id="path6-7-8"
       sodipodi:nodetypes="ccccccc" /><path
       style="fill:#000000;fill-opacity:1;stroke:none;stroke-width:0.3;stroke-linecap:round;stroke-linejoin:round;stroke-dasharray:none;stroke-opacity:1"
       d="m 53.440408,37.453285 1.845073,-0.009 a 0.33511511,0.33511511 136.18824 0 0 0.333116,-0.319579 l 0.08941,-1.927053 a 0.32161496,0.32161496 46.139796 0 0 -0.323385,-0.336515 l -1.883305,0.01239 a 0.30897439,0.30897439 136.32514 0 0 -0.30651,0.29265 l -0.101687,1.922778 a 0.3460738,0.3460738 46.373583 0 0 0.347283,0.364346 z"
       id="path12-4-9"
       sodipodi:nodetypes="ccccc"
       inkscape:path-effect="#path-effect12-7-6-39"
       inkscape:original-d="m 53.073762,37.455078 2.530079,-0.01237 0.119889,-2.583821 -2.513542,0.01654 z"
       transform="matrix(0.78547707,0,0,0.72245417,-7.2455833,-3.5440835)" /><path
       style="fill:#000000;fill-opacity:1;stroke:none;stroke-width:0.198636;stroke-linecap:round;stroke-linejoin:round;stroke-dasharray:none;stroke-opacity:1"
       d="m 15.422596,19.66336 -2.786191,1.689644 c 0.468626,0.725492 1.267256,1.296804 2.240345,1.303301 l 4.273147,0.02836 c 1.240312,-0.0083 1.248293,-0.223297 1.718727,-0.413669 l -1.658232,-2.58405 z"
       id="path11-7-0"
       sodipodi:nodetypes="ccccccc" /><path
       style="fill:#000000;fill-opacity:1;stroke:none;stroke-width:0.198636;stroke-linecap:round;stroke-linejoin:round;stroke-dasharray:none;stroke-opacity:1"
       d="m 22.178261,12.598881 -2.098847,1.443618 -0.377041,5.80955 1.443166,2.16038 c 0.897027,-0.495067 1.519947,-0.950962 1.605369,-1.857655 l 0.559506,-6.664476 z"
       id="path10-1-4"
       sodipodi:nodetypes="ccccccc" /><path
       style="fill:#000000;fill-opacity:1;stroke:none;stroke-width:0.197099;stroke-linecap:round;stroke-linejoin:round;stroke-dasharray:none;stroke-opacity:1"
       d="m 14.29211,12.569318 -1.404738,0.964544 -0.444764,6.32436 c -0.03144,0.322834 -0.03605,0.848451 0.101021,1.152164 l 2.881717,-1.671203 0.544283,-5.576827 z"
       id="path9-8-8"
       sodipodi:nodetypes="ccccccc" /><path
       style="fill:#000000;fill-opacity:1;stroke:none;stroke-width:0.192006;stroke-linecap:round;stroke-linejoin:round;stroke-dasharray:none;stroke-opacity:1"
       d="m 14.061363,4.1927114 c -0.22507,0.333509 -0.360808,0.700451 -0.398666,1.077711 l -0.403418,5.9424416 1.036795,1.046661 2.094623,-1.65344 0.210939,-5.1596246 -1.222735,-0.592838 z"
       id="path8-7-7"
       sodipodi:nodetypes="cccccccc" /><path
       style="fill:#000000;fill-opacity:1;stroke:none;stroke-width:0.198636;stroke-linecap:round;stroke-linejoin:round;stroke-dasharray:none;stroke-opacity:1"
       d="m 22.564832,2.3115404 -1.55867,3.017573 -0.479691,5.6544366 1.652498,1.219554 1.368255,-0.77647 0.542922,-7.1563976 c 0.07747,-0.823217 -0.649738,-1.601954 -1.525314,-1.958696 z"
       id="path7-8-5"
       sodipodi:nodetypes="ccccccc" /><path
       style="fill:#000000;fill-opacity:1;stroke:none;stroke-width:0.223296;stroke-linecap:round;stroke-linejoin:round;stroke-dasharray:none;stroke-opacity:1"
       d="m 17.113512,2.0917984 c -1.125337,-0.0072 -2.301312,0.821356 -2.95337,1.804445 l 2.477261,1.303862 4.09892,0.01733 h 0.02469 l 1.564657,-3.019015 c -0.183207,-0.04955 -0.371324,-0.07523 -0.560272,-0.07648 z"
       id="rect4-7-9"
       sodipodi:nodetypes="cccccccc" /><path
       style="fill:#000000;fill-opacity:1;stroke:none;stroke-width:0.186936;stroke-linecap:round;stroke-linejoin:round;stroke-dasharray:none;stroke-opacity:1"
       d="m 16.445525,10.865357 3.520105,3e-6 1.870333,1.585006 -2.023541,1.40811 -3.27631,-0.03538 -1.882077,-1.376053 z"
       id="path6-7-5"
       sodipodi:nodetypes="ccccccc" /><path
       style="fill:#000000;fill-opacity:1;stroke:none;stroke-width:0.3;stroke-linecap:round;stroke-linejoin:round;stroke-dasharray:none;stroke-opacity:1"
       d="m 53.440408,37.453285 1.845073,-0.009 a 0.33511511,0.33511511 136.18824 0 0 0.333116,-0.319579 l 0.08941,-1.927053 a 0.32161496,0.32161496 46.139796 0 0 -0.323385,-0.336515 l -1.883305,0.01239 a 0.30897439,0.30897439 136.32514 0 0 -0.30651,0.29265 l -0.101687,1.922778 a 0.3460738,0.3460738 46.373583 0 0 0.347283,0.364346 z"
       id="path12-4-3"
       sodipodi:nodetypes="ccccc"
       inkscape:path-effect="#path-effect12-7-6-3"
       inkscape:original-d="m 53.073762,37.455078 2.530079,-0.01237 0.119889,-2.583821 -2.513542,0.01654 z"
       transform="matrix(0.78547707,0,0,0.72245417,-19.356716,-3.5440836)" /></g></svg>
